<?xml version="1.0" encoding="utf-8"?>
<!-- Generator: Adobe Illustrator 27.8.1, SVG Export Plug-In . SVG Version: 6.00 Build 0)  -->
<svg version="1.1" id="katman_1" xmlns="http://www.w3.org/2000/svg" xmlns:xlink="http://www.w3.org/1999/xlink" x="0px" y="0px"
	 viewBox="0 0 1080 1080" style="enable-background:new 0 0 1080 1080;" xml:space="preserve">
<style type="text/css">
	.st0{display:none;fill:#FFFFFF;}
</style>
<rect x="-108" y="-108" class="st0" width="1296" height="1296"/>
<path d="M217.6,275.5c-42.1,6.5-81.8,26-111.9,55c-21,20.1-32.4,35.7-44.5,60.5c-14.8,30.1-21.6,59.3-21.6,92.4
	c0,32.8,6.8,62.1,21.6,92.4c11.2,23.1,20.6,36.3,39.3,55.3c5.9,6.2,17.4,22.2,12.5,37.1c-6.7,20.5-8.1,28.5-8.1,48.6
	c0,20.4,1.2,25.9,8.4,41.1c3.8,7.8,6.2,10.9,15.8,20.6c17.5,17.5,28.4,21.7,60.5,23.7c11,0.6,150.1,1.2,360.5,1.4l342.5,0.2l9.7-2.5
	c18.9-4.8,36.4-15.9,46.7-29.7c9.4-12.6,11.9-21.1,14.9-49.9c2.4-23.2,2.6-24.9,4.2-27c1.2-1.6,3.8-2.1,17-2.8
	c27.2-1.3,43.5-6.5,50.1-15.9c3.2-4.6,3.2-4.9,3.1-17.8c0-5.4-0.1-8.7-0.6-12.2c-1.3-9.4-3.8-16.3-4.5-18.2
	c-3.1-8.3-96.2-269.3-107.4-302c-1.9-5.5-6.8-20.2-20.3-31.7c-9.9-8.3-21.2-11.7-24.9-12.7c-7.9-2.2-13.9-2.4-21.2-2.6
	c-39.8-1-48.2-1-61.5-0.5c-16.4,0.6-24.1,1.6-33.2,6.4c-4.4,2.3-8.3,5.7-13.1,11c-9.5,10.4-27,50.6-28.3,52.6
	c-2.2,3.6-2.2,3.6-4.4,1.6c-1.2-1.2-7.2-7.9-13.3-15c-13.6-16-18.6-20.5-30.3-28.2c-12.4-8.1-26.2-14.4-44.4-20.2
	c-25.1-8.1-43.8-9.9-110.1-11c-45.5-0.8-119.9,0.6-121.6,2.3c-0.6,0.6-1.4,10.5-1.8,22.4c-0.3,11.7-1.1,21.3-1.6,21.3
	c-0.4,0-6.2-3.9-12.6-8.6c-26.5-19.5-66.8-34.1-103.2-37.7C264,273.3,229.2,273.6,217.6,275.5z M281.5,321.9
	c11.7,1.7,27.7,6.1,37.6,10c26.2,10.4,52.9,31.3,70.7,55.1c13.8,18.6,21.8,35.7,28.1,60.1c3.7,13.8,3.7,14.4,3.7,37.8
	c0,19.2-0.4,25.5-2.1,33c-5.9,27-18.3,53.3-34.3,72.4c-25.4,30.5-52.6,47.4-93.4,58c-11.6,2.9-12.6,3-38.4,2.9
	c-20.4,0-28.3-0.4-34.6-1.8c-34.8-7.7-58.6-19.5-80.7-40c-33.5-30.9-50.6-65.8-54.6-111.3c-2.9-34.1,4.2-66.7,21.3-96.9
	c27.1-48.2,72-76.4,129.1-81C247.3,319.1,267.2,319.9,281.5,321.9z M597.1,326c49.8,8.2,87.2,39.2,97.8,81.2
	c7.2,28.5,5,55.8-6.6,80.4c-8.3,17.7-23.4,33.2-41.3,42.1c-3.8,1.8-7,4.1-7.3,4.9c-0.5,1.5,10.5,20.2,25.7,43.3
	c11.6,17.8,40.1,64.4,39.6,64.8c-0.2,0.2-22.2,0.5-48.7,0.6l-48.5,0.2l-4.2-6.6c-6.6-10.5-32.2-55.2-42.1-73.7
	c-5-9.2-10.6-19.7-12.5-23.2c-4.1-7.6-4.2-9.6-1.4-18.7c1.6-5.2,6.5-32.8,6.5-37.3c0-0.4,3.8-0.8,8.4-0.8c9.4,0,22.3-2.8,29.5-6.5
	c6.4-3.3,15.2-11.9,18.2-17.7c7.6-15.2,4.6-35.3-7.1-48.2c-4.9-5.5-15.1-10.4-24.7-11.9c-4.1-0.7-18-1-31.2-0.9l-23.8,0.3
	l-0.3,122.3l-0.2,122.4h-81V491.7c0-83.4,0.3-155.5,0.8-160l0.7-8.3l71.4,0.4C575.5,324.1,587.4,324.4,597.1,326z M881.4,326.2
	c1,0.9,2.2,2.9,2.6,4.5c0.3,1.5,4.1,12,8.3,23.3c4.1,11.3,10.4,28.9,13.8,39c3.5,10,9.1,25.9,12.4,35.1c9.2,25,27.8,78.5,47.2,136.2
	c22,65.5,24.6,73.4,24.6,75.2c0,0.8-1.3,1.8-2.9,2.3c-1.7,0.4-19.3,0.8-39.2,0.8l-36.2,0.1l-2.3-4.9c-1.3-2.7-4.6-11.7-7.6-19.9
	l-5.2-15l-59.6,0.8l-59.6,0.9l1.1-4.5c0.7-2.5,5.9-18.7,11.8-36l10.6-31.6l17.6,0.3c9.7,0.2,25.6,0.8,35.4,1.3
	c9.8,0.5,18,0.8,18.3,0.4c0.2-0.2-2.4-8.3-5.7-17.9c-3.5-9.7-12.6-36.6-20.5-59.8c-7.9-23.2-14.7-41.9-15.2-41.6
	c-0.5,0.3-8.6,23.3-18.2,51.3c-9.4,27.9-19.7,58.3-22.9,67.5c-6.6,19.5-36.4,101.8-38.5,106.2l-1.3,2.9h-33.1l-6.4-10.6
	c-3.5-5.7-10.8-17.5-16.3-26.2c-5.4-8.6-10.2-16.6-10.5-17.8c-0.4-1.8,12-35.8,32.3-88.1c2.6-6.8,8.5-22.9,13.2-35.7
	c4.5-12.8,10.5-29.3,13.2-36.7c12.5-35,15.3-42.5,25.7-69.8c6.2-16,11.8-30.5,12.5-32.1l1.3-2.9l48.6,0.5
	C873,324.5,879.8,324.7,881.4,326.2z M819.4,685.6c7.9,2.9,14.6,9.7,19,19c2.9,6.3,3.3,8.3,3.3,16.4c0,20.1-8.1,32.8-24.1,37.5
	c-9.1,2.6-24.8,1.5-32.1-2.2c-7.9-4-13.7-11-16.6-20.2c-3.1-9.7-2.8-26.9,0.8-34.7c4.3-9.7,12.2-16.1,22.3-18.3
	C798.6,681.8,812.5,683,819.4,685.6z M341.3,709.7c14,34,19.3,49.2,17.5,49.8c-0.8,0.3-3.7,0.4-6.6,0.2l-5.3-0.3l-4.8-9.7
	c-4.4-9.2-8.9-20.2-15.8-39.8c-1.6-4.5-3.3-8.3-3.9-8.3c-0.5,0-1.7,2.8-2.6,6.2c-2.4,8.4-17.1,49.5-18.3,50.8
	c-0.1,0.1-3.3,0.5-7.1,0.9c-10.1,1-10.5,0.4-7.1-9.6c3.2-9.5,14.8-39.3,21.4-54.8c5-11.8,4.8-11.7,17-11.3l4.9,0.1L341.3,709.7z
	 M375.6,687.7c1.7,2.5,6.2,9.7,9.8,16.2c3.6,6.5,6.7,11.8,6.9,11.8c0.2,0,4.3-7,9.1-15.6l8.8-15.6l9.3-0.8c5.1-0.4,9.5-0.4,9.8-0.2
	c0.3,0.3-1.8,4.3-4.6,8.9c-10.2,15.8-17.7,28.1-21,34.3c-3.1,5.9-3.3,6.9-3.5,19.1l-0.1,12.9l-6.4,0.4c-3.6,0.2-6.8,0.1-7.2-0.2
	c-0.5-0.3-1.2-6.1-1.5-12.9c-0.8-13.4-2.3-17.9-9.9-29.9c-5.1-7.9-13.5-22-13.5-22.7c0-0.2-1.2-2.4-2.7-4.8
	c-1.5-2.4-2.7-4.5-2.7-4.9c0-0.3,3.7-0.5,8.1-0.5h8.1L375.6,687.7z M497,689.3c0.4,3.4,0.4,6.5,0,6.8c-0.3,0.3-6.5,0.4-13.7,0.3
	c-20.9-0.7-23.8,0.5-23.8,9.7c0,7.2,1.7,8,17.9,8.9c19.3,1.1,21.7,1.7,24.7,7.5c2.1,3.8,2.5,6.3,2.5,14.3c0,8.9-0.2,10.2-3,14.2
	c-4.8,7-6.1,7.3-32.3,7.8l-23.3,0.4l-0.4-6.2c-0.1-3.3-0.1-6.4,0.1-6.6c0.2-0.2,9.3-0.4,20.1-0.4c22.8,0,22.3,0.2,23-9.8
	c0.4-5.8,0.3-6.4-2.1-7.2c-1.4-0.5-9.4-1.3-17.7-1.6c-8.3-0.3-16.4-1.1-17.9-1.6c-8.1-3.1-10.9-28.2-3.9-35.7
	c5.3-5.7,8.8-6.5,31.1-6.6l17.9-0.1L497,689.3z M577.3,685.1c0.2,0.5,0,3.6-0.4,6.7l-0.9,5.8l-10.9-0.2l-10.9-0.2l-0.6,8.3
	c-0.4,4.5-0.8,18.5-0.8,30.9v22.5h-6.9c-5.3,0-7-0.4-7.6-1.7c-0.3-1-0.6-14.8-0.6-30.8v-29.1h-24.9v-13l24.1-0.3
	C567.2,683.6,577,683.9,577.3,685.1z M624.1,689.2c5.2,9.1,25.9,64.4,25.9,69.2c0,2.1-12.2,2.4-13.7,0.2
	c-1.1-1.4-14.5-35.3-19.2-48.6c-1.6-4.5-3.4-8.3-3.8-8.3c-0.4,0-1.4,2.6-2.2,5.6c-1.2,5.1-12.2,35.8-16.8,46.6
	c-1.9,4.6-1.9,4.6-10.6,5.5c-8,0.9-8.4-0.1-4.7-11.6c5.1-15.3,21.3-55.9,24.5-61.2c1.9-3.2,2.3-3.3,9.5-3.3h7.6L624.1,689.2z
	 M881.3,687.6c1.5,1.7,7.5,12,13.4,22.9c10.5,19.6,13.1,23.6,14.9,23.6c0.4,0,0.9-10.9,0.9-24.3c0-27.1-0.8-24.7,8.1-24.3
	c2.4,0.1,4.6,0.8,5.1,1.4c1.5,2.3,1,68.3-0.4,69.7c-0.8,0.8-4.3,1.3-8.4,1.3c-6.1,0-7.6-0.3-9.4-2.5c-1.9-2.2-6.9-10.7-17.1-29.4
	C883.2,716.5,877,707,876,707c-0.4,0-0.8,10-0.8,22.4c0.1,12.4-0.2,23.8-0.6,25.3c-0.8,2.5-1.6,2.9-5.9,3.5c-2.8,0.3-5.6,0.3-6.4,0
	c-2.6-1-3.2-70-0.8-74.2c0.3-0.5,4.3-0.6,8.9-0.2C877.7,684.3,878.9,684.8,881.3,687.6z M196.6,686.5c6.9,3.5,10.1,9.5,10.9,21.5
	c1.1,13.3-3.7,20.9-15,24.1c-6.5,1.7-21.5,1.7-23.7-0.1c-1.8-1.5-2.5-8.2-1-10.5c0.4-0.7,4.9-1.4,9.8-1.7c7.8-0.4,9.4-0.9,11-2.9
	c4.5-5.6,3.5-17.6-1.8-19.6c-4-1.6-23.4-1.4-25.1,0.2c-1,1-1.3,9.1-1.3,30s-0.3,29.1-1.3,30c-0.8,0.8-3.3,1.3-5.9,1.3
	c-3.5,0-4.9-0.5-5.7-2.1c-1.2-2.4-1.6-70.6-0.3-71.8c0.3-0.4,10.7-0.8,23-0.8C190.2,684.3,193,684.6,196.6,686.5z M237.6,685.4h2.9
	v30.1c0,20,0.4,30.5,1.2,30.9c0.5,0.4,8.1,0.7,16.7,0.7l15.6-0.2v12h-48.5l-0.3-36c-0.2-21.6,0.1-36.4,0.8-37.3
	c0.6-1.1,2.3-1.3,4.9-0.9C232.8,685.1,235.9,685.4,237.6,685.4z M711.6,690.8v6.5h-22.4l-0.8,4c-0.3,2.3-0.6,16.2-0.6,30.9V759
	l-7.2-0.3l-7.3-0.3l-0.5-30.3l-0.5-30.3l-12.1-0.3l-12.1-0.3l-0.8-4.8c-1.2-8.6-3.2-8.1,32.5-8.1h31.9V690.8z M746,721.3l-0.3,37.1
	l-7.8,0.3L730,759v-74.7h16.2L746,721.3z M332.5,737c2.6,6,2.4,8.1-1.2,9.1c-3.3,1-13.5,1-17.8,0c-3.6-0.8-4.8-3.9-2.7-7.6
	c1.5-3,9.3-6.4,14.9-6.5C330.2,731.9,330.3,732,332.5,737z M621.2,734.4c2.4,1.6,5.2,9.6,4,10.9c-1.4,1.4-10.9,2.2-16.6,1.3
	c-5.5-0.9-6.8-2.9-5-7.6C605.4,734,616.8,731,621.2,734.4z"/>
<path d="M233.7,398.5c-8.6,1.7-25.6,9.6-32.7,15c-18.8,14.4-31.1,33.5-34.9,54c-3,16.5-0.5,38.6,5.8,53.3c8.2,18.6,27.2,37,46.5,45
	c11.1,4.5,17.4,5.6,33.5,5.5c14.2,0,15.8-0.2,25.4-3.6c23.9-8.1,40.1-21.7,51.8-43.5c9.1-16.7,12.3-35.4,9.3-53.2
	c-5.7-33.8-28.5-60.1-61.1-70.3C265.8,397.1,245.5,396,233.7,398.5z"/>
<path d="M794.2,698.3c-13.1,8-16.3,25.9-7,39.6c4.9,7.1,9.2,9.4,17,9c8.9-0.5,14.3-4.1,18.2-11.8c2.4-5,2.8-7.1,2.8-15.5
	c0-12.2-2.4-17.2-9.7-21C809.2,695.5,799.1,695.4,794.2,698.3z"/>
<rect x="796.8" y="528" width="73.9" height="6.6"/>
</svg>
